<svg viewBox="0 0 900 700" xmlns="http://www.w3.org/2000/svg">

  <defs>
    <linearGradient id="bg" x1="0" y1="0" x2="1" y2="1">
      <stop offset="0" stop-color="#4FA8DA"/>
      <stop offset="1" stop-color="#EAF3FA"/>
    </linearGradient>
  </defs>
  <rect width="900" height="700" fill="url(#bg)"/>
  <rect x="0" y="602.0" width="900" height="98.0" fill="#073A66" opacity="0.12"/>
  <rect x="54.0" y="210.0" width="792.0" height="392.0" rx="10" fill="#FFFFFF"/>
  <rect x="81.0" y="272.7" width="82.8" height="41.2" rx="3" fill="#FFFFFF" opacity="0.9"/>
  <rect x="244.8" y="272.7" width="82.8" height="41.2" rx="3" fill="#4FA8DA" opacity="0.9"/>
  <rect x="408.6" y="272.7" width="82.8" height="41.2" rx="3" fill="#4FA8DA" opacity="0.9"/>
  <rect x="572.4" y="272.7" width="82.8" height="41.2" rx="3" fill="#FFFFFF" opacity="0.9"/>
  <rect x="736.2" y="272.7" width="82.8" height="41.2" rx="3" fill="#4FA8DA" opacity="0.9"/>
  <rect x="81.0" y="353.1" width="82.8" height="41.2" rx="3" fill="#4FA8DA" opacity="0.9"/>
  <rect x="244.8" y="353.1" width="82.8" height="41.2" rx="3" fill="#4FA8DA" opacity="0.9"/>
  <rect x="408.6" y="353.1" width="82.8" height="41.2" rx="3" fill="#FFFFFF" opacity="0.9"/>
  <rect x="572.4" y="353.1" width="82.8" height="41.2" rx="3" fill="#4FA8DA" opacity="0.9"/>
  <rect x="736.2" y="353.1" width="82.8" height="41.2" rx="3" fill="#4FA8DA" opacity="0.9"/>
  <rect x="81.0" y="433.4" width="82.8" height="41.2" rx="3" fill="#4FA8DA" opacity="0.9"/>
  <rect x="244.8" y="433.4" width="82.8" height="41.2" rx="3" fill="#FFFFFF" opacity="0.9"/>
  <rect x="408.6" y="433.4" width="82.8" height="41.2" rx="3" fill="#4FA8DA" opacity="0.9"/>
  <rect x="572.4" y="433.4" width="82.8" height="41.2" rx="3" fill="#4FA8DA" opacity="0.9"/>
  <rect x="736.2" y="433.4" width="82.8" height="41.2" rx="3" fill="#FFFFFF" opacity="0.9"/>
  <rect x="81.0" y="513.8" width="82.8" height="41.2" rx="3" fill="#FFFFFF" opacity="0.9"/>
  <rect x="244.8" y="513.8" width="82.8" height="41.2" rx="3" fill="#4FA8DA" opacity="0.9"/>
  <rect x="408.6" y="513.8" width="82.8" height="41.2" rx="3" fill="#4FA8DA" opacity="0.9"/>
  <rect x="572.4" y="513.8" width="82.8" height="41.2" rx="3" fill="#FFFFFF" opacity="0.9"/>
  <rect x="736.2" y="513.8" width="82.8" height="41.2" rx="3" fill="#4FA8DA" opacity="0.9"/>
  <rect x="378.0" y="484.4" width="144.0" height="117.6" fill="#0B4F8A"/>
  <rect x="418.5" y="507.92" width="63.00000000000001" height="19.799999999999997" fill="#FFFFFF"/>
  <rect x="439.2" y="496.15999999999997" width="21.6" height="72.0" fill="#FFFFFF"/>
  <rect x="270.0" y="161.0" width="360.0" height="49.00000000000001" rx="8" fill="#0B4F8A"/>
  <rect x="396.0" y="133.0" width="45.0" height="35.0" fill="#0B4F8A"/>
  <rect x="459.0" y="133.0" width="45.0" height="35.0" fill="#0B4F8A"/>
  <circle cx="90.0" cy="651.0" r="34.3" fill="#1FAE8C" opacity="0.5"/>
  <circle cx="846.0" cy="651.0" r="44.1" fill="#1FAE8C" opacity="0.5"/>
</svg>